<mxfile host="app.diagrams.net" modified="2023-07-26T15:58:51.314Z" agent="Mozilla/5.0 (Windows NT 10.0; Win64; x64) AppleWebKit/537.36 (KHTML, like Gecko) Chrome/114.0.0.0 Safari/537.36" etag="FwsYRckMPzpZlIP6V3s7" version="21.6.5" type="device">
  <diagram id="yNAViIya7tX7Hqbpp-F6" name="Page-1">
    <mxGraphModel dx="1050" dy="575" grid="1" gridSize="10" guides="1" tooltips="1" connect="1" arrows="1" fold="1" page="1" pageScale="1" pageWidth="850" pageHeight="1100" math="0" shadow="0">
      <root>
        <object label="" id="0">
          <mxCell />
        </object>
        <mxCell id="1" parent="0" />
        <mxCell id="QWoIm-UhdKwQbDzPS835-9" value="&lt;font style=&quot;font-size: 10px;&quot;&gt;Private subnet (db)&lt;/font&gt;" style="points=[[0,0],[0.25,0],[0.5,0],[0.75,0],[1,0],[1,0.25],[1,0.5],[1,0.75],[1,1],[0.75,1],[0.5,1],[0.25,1],[0,1],[0,0.75],[0,0.5],[0,0.25]];outlineConnect=0;gradientColor=none;html=1;whiteSpace=wrap;fontSize=12;fontStyle=0;container=1;pointerEvents=0;collapsible=0;recursiveResize=0;shape=mxgraph.aws4.group;grIcon=mxgraph.aws4.group_security_group;grStroke=0;strokeColor=#147EBA;fillColor=#E6F2F8;verticalAlign=top;align=left;spacingLeft=30;fontColor=#147EBA;dashed=0;" vertex="1" parent="1">
          <mxGeometry x="519" y="480" width="130" height="110" as="geometry" />
        </mxCell>
        <object label="&lt;b style=&quot;&quot;&gt;&lt;font color=&quot;#ff3333&quot;&gt;Virtual Private Cloud (VPC) -&amp;nbsp;&lt;span style=&quot;background-color: rgb(255, 255, 255); font-family: Consolas, &amp;quot;Courier New&amp;quot;, monospace; font-size: 14px;&quot;&gt;10.0.0.0/16&lt;/span&gt;&lt;/font&gt;&lt;/b&gt;" test="" id="sEXG70HM5hxwO3qtqiKj-3">
          <mxCell style="shape=mxgraph.ibm.box;prType=vpc;fontStyle=0;verticalAlign=top;align=left;spacingLeft=32;spacingTop=4;fillColor=none;rounded=0;whiteSpace=wrap;html=1;strokeColor=#4CD197;strokeWidth=2;dashed=0;container=0;spacing=-4;collapsible=0;expand=0;recursiveResize=0;" parent="1" vertex="1">
            <mxGeometry x="55" y="120.5" width="750" height="495" as="geometry" />
          </mxCell>
        </object>
        <mxCell id="sEXG70HM5hxwO3qtqiKj-2" value="AWS Cloud" style="sketch=0;outlineConnect=0;gradientColor=none;html=1;whiteSpace=wrap;fontSize=12;fontStyle=0;shape=mxgraph.aws4.group;grIcon=mxgraph.aws4.group_aws_cloud;strokeColor=#212326;fillColor=none;verticalAlign=top;align=left;spacingLeft=30;fontColor=#858B94;dashed=0;" parent="1" vertex="1">
          <mxGeometry x="30" y="40" width="800" height="590" as="geometry" />
        </mxCell>
        <mxCell id="sEXG70HM5hxwO3qtqiKj-9" value="Availability Zone 1" style="fillColor=none;strokeColor=#147EBA;dashed=1;verticalAlign=top;fontStyle=1;fontColor=#147EBA;" parent="1" vertex="1">
          <mxGeometry x="93" y="171" width="200" height="429" as="geometry" />
        </mxCell>
        <mxCell id="-XT0I-GiSd9Vw49IRbK9-10" value="&lt;font size=&quot;1&quot; color=&quot;#330000&quot;&gt;&lt;b style=&quot;font-size: 14px;&quot;&gt;Region us-west-2 (Oregon)&lt;/b&gt;&lt;/font&gt;" style="points=[[0,0],[0.25,0],[0.5,0],[0.75,0],[1,0],[1,0.25],[1,0.5],[1,0.75],[1,1],[0.75,1],[0.5,1],[0.25,1],[0,1],[0,0.75],[0,0.5],[0,0.25]];outlineConnect=0;gradientColor=none;html=1;whiteSpace=wrap;fontSize=12;fontStyle=0;container=1;pointerEvents=0;collapsible=0;recursiveResize=0;shape=mxgraph.aws4.group;grIcon=mxgraph.aws4.group_region;strokeColor=#147EBA;fillColor=none;verticalAlign=top;align=left;spacingLeft=30;fontColor=#147EBA;dashed=1;" parent="1" vertex="1">
          <mxGeometry x="40" y="81" width="780" height="540" as="geometry" />
        </mxCell>
        <mxCell id="sEXG70HM5hxwO3qtqiKj-10" value="Availability Zone 2" style="fillColor=none;strokeColor=#147EBA;dashed=1;verticalAlign=top;fontStyle=1;fontColor=#147EBA;movable=1;resizable=1;rotatable=1;deletable=1;editable=1;locked=0;connectable=1;" parent="-XT0I-GiSd9Vw49IRbK9-10" vertex="1">
          <mxGeometry x="440" y="84" width="206" height="436" as="geometry" />
        </mxCell>
        <mxCell id="-XT0I-GiSd9Vw49IRbK9-8" value="Public subnet" style="points=[[0,0],[0.25,0],[0.5,0],[0.75,0],[1,0],[1,0.25],[1,0.5],[1,0.75],[1,1],[0.75,1],[0.5,1],[0.25,1],[0,1],[0,0.75],[0,0.5],[0,0.25]];outlineConnect=0;gradientColor=none;html=1;whiteSpace=wrap;fontSize=12;fontStyle=0;container=1;pointerEvents=0;collapsible=0;recursiveResize=0;shape=mxgraph.aws4.group;grIcon=mxgraph.aws4.group_security_group;grStroke=0;strokeColor=#248814;fillColor=#E9F3E6;verticalAlign=top;align=left;spacingLeft=30;fontColor=#248814;dashed=0;" parent="-XT0I-GiSd9Vw49IRbK9-10" vertex="1">
          <mxGeometry x="449" y="110" width="190" height="125" as="geometry" />
        </mxCell>
        <mxCell id="QWoIm-UhdKwQbDzPS835-4" value="Private subnet" style="points=[[0,0],[0.25,0],[0.5,0],[0.75,0],[1,0],[1,0.25],[1,0.5],[1,0.75],[1,1],[0.75,1],[0.5,1],[0.25,1],[0,1],[0,0.75],[0,0.5],[0,0.25]];outlineConnect=0;gradientColor=none;html=1;whiteSpace=wrap;fontSize=12;fontStyle=0;container=1;pointerEvents=0;collapsible=0;recursiveResize=0;shape=mxgraph.aws4.group;grIcon=mxgraph.aws4.group_security_group;grStroke=0;strokeColor=#147EBA;fillColor=#E6F2F8;verticalAlign=top;align=left;spacingLeft=30;fontColor=#147EBA;dashed=0;" vertex="1" parent="-XT0I-GiSd9Vw49IRbK9-10">
          <mxGeometry x="478" y="250" width="130" height="130" as="geometry" />
        </mxCell>
        <mxCell id="-XT0I-GiSd9Vw49IRbK9-14" value="" style="sketch=0;points=[[0,0,0],[0.25,0,0],[0.5,0,0],[0.75,0,0],[1,0,0],[0,1,0],[0.25,1,0],[0.5,1,0],[0.75,1,0],[1,1,0],[0,0.25,0],[0,0.5,0],[0,0.75,0],[1,0.25,0],[1,0.5,0],[1,0.75,0]];outlineConnect=0;fontColor=#232F3E;gradientColor=#F78E04;gradientDirection=north;fillColor=#D05C17;strokeColor=#ffffff;dashed=0;verticalLabelPosition=bottom;verticalAlign=top;align=center;html=1;fontSize=12;fontStyle=0;aspect=fixed;shape=mxgraph.aws4.resourceIcon;resIcon=mxgraph.aws4.ec2;" parent="-XT0I-GiSd9Vw49IRbK9-10" vertex="1">
          <mxGeometry x="514.75" y="286" width="56.5" height="56.5" as="geometry" />
        </mxCell>
        <mxCell id="QWoIm-UhdKwQbDzPS835-20" value="" style="sketch=0;points=[[0,0,0],[0.25,0,0],[0.5,0,0],[0.75,0,0],[1,0,0],[0,1,0],[0.25,1,0],[0.5,1,0],[0.75,1,0],[1,1,0],[0,0.25,0],[0,0.5,0],[0,0.75,0],[1,0.25,0],[1,0.5,0],[1,0.75,0]];outlineConnect=0;fontColor=#232F3E;gradientColor=#F78E04;gradientDirection=north;fillColor=#D05C17;strokeColor=#ffffff;dashed=0;verticalLabelPosition=bottom;verticalAlign=top;align=center;html=1;fontSize=12;fontStyle=0;aspect=fixed;shape=mxgraph.aws4.resourceIcon;resIcon=mxgraph.aws4.auto_scaling2;" vertex="1" parent="-XT0I-GiSd9Vw49IRbK9-10">
          <mxGeometry x="335" y="219" width="50" height="50" as="geometry" />
        </mxCell>
        <mxCell id="QWoIm-UhdKwQbDzPS835-23" value="&lt;b&gt;EC2 Autoscaling Group&lt;/b&gt;" style="text;html=1;strokeColor=none;fillColor=none;align=center;verticalAlign=middle;whiteSpace=wrap;rounded=0;" vertex="1" parent="-XT0I-GiSd9Vw49IRbK9-10">
          <mxGeometry x="280" y="189" width="140" height="30" as="geometry" />
        </mxCell>
        <mxCell id="QWoIm-UhdKwQbDzPS835-25" value="" style="sketch=0;points=[[0,0,0],[0.25,0,0],[0.5,0,0],[0.75,0,0],[1,0,0],[0,1,0],[0.25,1,0],[0.5,1,0],[0.75,1,0],[1,1,0],[0,0.25,0],[0,0.5,0],[0,0.75,0],[1,0.25,0],[1,0.5,0],[1,0.75,0]];outlineConnect=0;fontColor=default;gradientColor=#4D72F3;gradientDirection=north;fillColor=default;strokeColor=#ffffff;dashed=0;verticalLabelPosition=bottom;verticalAlign=top;align=center;html=1;fontSize=12;fontStyle=0;aspect=fixed;shape=mxgraph.aws4.resourceIcon;resIcon=mxgraph.aws4.rds;" vertex="1" parent="-XT0I-GiSd9Vw49IRbK9-10">
          <mxGeometry x="514.75" y="429" width="51" height="51" as="geometry" />
        </mxCell>
        <mxCell id="-XT0I-GiSd9Vw49IRbK9-6" value="Public subnet" style="points=[[0,0],[0.25,0],[0.5,0],[0.75,0],[1,0],[1,0.25],[1,0.5],[1,0.75],[1,1],[0.75,1],[0.5,1],[0.25,1],[0,1],[0,0.75],[0,0.5],[0,0.25]];outlineConnect=0;gradientColor=none;html=1;whiteSpace=wrap;fontSize=12;fontStyle=0;container=1;pointerEvents=0;collapsible=0;recursiveResize=0;shape=mxgraph.aws4.group;grIcon=mxgraph.aws4.group_security_group;grStroke=0;strokeColor=#248814;fillColor=#E9F3E6;verticalAlign=top;align=left;spacingLeft=30;fontColor=#248814;dashed=0;" parent="1" vertex="1">
          <mxGeometry x="89" y="195" width="190" height="125" as="geometry" />
        </mxCell>
        <mxCell id="QWoIm-UhdKwQbDzPS835-5" value="Private subnet" style="points=[[0,0],[0.25,0],[0.5,0],[0.75,0],[1,0],[1,0.25],[1,0.5],[1,0.75],[1,1],[0.75,1],[0.5,1],[0.25,1],[0,1],[0,0.75],[0,0.5],[0,0.25]];outlineConnect=0;gradientColor=none;html=1;whiteSpace=wrap;fontSize=12;fontStyle=0;container=1;pointerEvents=0;collapsible=0;recursiveResize=0;shape=mxgraph.aws4.group;grIcon=mxgraph.aws4.group_security_group;grStroke=0;strokeColor=#147EBA;fillColor=#E6F2F8;verticalAlign=top;align=left;spacingLeft=30;fontColor=#147EBA;dashed=0;" vertex="1" parent="1">
          <mxGeometry x="119" y="340" width="130" height="110" as="geometry" />
        </mxCell>
        <mxCell id="-XT0I-GiSd9Vw49IRbK9-12" value="" style="sketch=0;points=[[0,0,0],[0.25,0,0],[0.5,0,0],[0.75,0,0],[1,0,0],[0,1,0],[0.25,1,0],[0.5,1,0],[0.75,1,0],[1,1,0],[0,0.25,0],[0,0.5,0],[0,0.75,0],[1,0.25,0],[1,0.5,0],[1,0.75,0]];outlineConnect=0;fontColor=#232F3E;gradientColor=#F78E04;gradientDirection=north;fillColor=#D05C17;strokeColor=#ffffff;dashed=0;verticalLabelPosition=bottom;verticalAlign=top;align=center;html=1;fontSize=12;fontStyle=0;aspect=fixed;shape=mxgraph.aws4.resourceIcon;resIcon=mxgraph.aws4.ec2;" parent="QWoIm-UhdKwQbDzPS835-5" vertex="1">
          <mxGeometry x="25.5" y="36.75" width="56.5" height="56.5" as="geometry" />
        </mxCell>
        <mxCell id="QWoIm-UhdKwQbDzPS835-7" value="&lt;font style=&quot;font-size: 10px;&quot;&gt;Private subnet (db)&lt;/font&gt;" style="points=[[0,0],[0.25,0],[0.5,0],[0.75,0],[1,0],[1,0.25],[1,0.5],[1,0.75],[1,1],[0.75,1],[0.5,1],[0.25,1],[0,1],[0,0.75],[0,0.5],[0,0.25]];outlineConnect=0;gradientColor=none;html=1;whiteSpace=wrap;fontSize=12;fontStyle=0;container=1;pointerEvents=0;collapsible=0;recursiveResize=0;shape=mxgraph.aws4.group;grIcon=mxgraph.aws4.group_security_group;grStroke=0;strokeColor=#147EBA;fillColor=#E6F2F8;verticalAlign=top;align=left;spacingLeft=30;fontColor=#147EBA;dashed=0;" vertex="1" parent="1">
          <mxGeometry x="129" y="474" width="130" height="110" as="geometry" />
        </mxCell>
        <mxCell id="QWoIm-UhdKwQbDzPS835-11" value="" style="sketch=0;outlineConnect=0;fontColor=#232F3E;gradientColor=none;fillColor=#2E27AD;strokeColor=none;dashed=0;verticalLabelPosition=bottom;verticalAlign=top;align=center;html=1;fontSize=12;fontStyle=0;aspect=fixed;pointerEvents=1;shape=mxgraph.aws4.rds_instance;" vertex="1" parent="QWoIm-UhdKwQbDzPS835-7">
          <mxGeometry x="16" y="50" width="60" height="60" as="geometry" />
        </mxCell>
        <mxCell id="QWoIm-UhdKwQbDzPS835-16" value="" style="endArrow=classic;html=1;rounded=0;horizontal=0;verticalAlign=bottom;" edge="1" parent="1">
          <mxGeometry width="50" height="50" relative="1" as="geometry">
            <mxPoint x="181" y="442" as="sourcePoint" />
            <mxPoint x="181" y="492" as="targetPoint" />
            <Array as="points">
              <mxPoint x="181" y="492" />
            </Array>
          </mxGeometry>
        </mxCell>
        <mxCell id="QWoIm-UhdKwQbDzPS835-17" value="" style="endArrow=classic;html=1;rounded=0;exitX=0.388;exitY=0.608;exitDx=0;exitDy=0;exitPerimeter=0;" edge="1" parent="1" source="sEXG70HM5hxwO3qtqiKj-10" target="QWoIm-UhdKwQbDzPS835-11">
          <mxGeometry width="50" height="50" relative="1" as="geometry">
            <mxPoint x="460" y="470" as="sourcePoint" />
            <mxPoint x="400" y="420" as="targetPoint" />
          </mxGeometry>
        </mxCell>
        <mxCell id="QWoIm-UhdKwQbDzPS835-19" value="" style="rounded=1;arcSize=10;dashed=1;strokeColor=#F59D56;fillColor=none;gradientColor=none;dashPattern=8 4;strokeWidth=2;" vertex="1" parent="1">
          <mxGeometry x="100" y="330" width="570" height="140" as="geometry" />
        </mxCell>
        <mxCell id="QWoIm-UhdKwQbDzPS835-30" value="" style="endArrow=classic;html=1;rounded=0;" edge="1" parent="1">
          <mxGeometry relative="1" as="geometry">
            <mxPoint x="200" y="546" as="sourcePoint" />
            <mxPoint x="550" y="546" as="targetPoint" />
          </mxGeometry>
        </mxCell>
        <mxCell id="QWoIm-UhdKwQbDzPS835-31" value="Label" style="edgeLabel;resizable=0;html=1;align=center;verticalAlign=middle;" connectable="0" vertex="1" parent="QWoIm-UhdKwQbDzPS835-30">
          <mxGeometry relative="1" as="geometry" />
        </mxCell>
        <mxCell id="QWoIm-UhdKwQbDzPS835-32" value="RDS Multi AZ" style="edgeLabel;html=1;align=center;verticalAlign=middle;resizable=0;points=[];" vertex="1" connectable="0" parent="QWoIm-UhdKwQbDzPS835-30">
          <mxGeometry x="-0.016" y="-1" relative="1" as="geometry">
            <mxPoint as="offset" />
          </mxGeometry>
        </mxCell>
        <mxCell id="QWoIm-UhdKwQbDzPS835-33" value="" style="sketch=0;outlineConnect=0;fontColor=#232F3E;gradientColor=none;fillColor=#4D27AA;strokeColor=none;dashed=0;verticalLabelPosition=bottom;verticalAlign=top;align=center;html=1;fontSize=12;fontStyle=0;aspect=fixed;pointerEvents=1;shape=mxgraph.aws4.application_load_balancer;" vertex="1" parent="1">
          <mxGeometry x="350" y="180" width="78" height="78" as="geometry" />
        </mxCell>
        <mxCell id="QWoIm-UhdKwQbDzPS835-35" value="" style="endArrow=classic;html=1;rounded=0;" edge="1" parent="1">
          <mxGeometry relative="1" as="geometry">
            <mxPoint x="417" y="210" as="sourcePoint" />
            <mxPoint x="480" y="210" as="targetPoint" />
          </mxGeometry>
        </mxCell>
        <mxCell id="QWoIm-UhdKwQbDzPS835-36" value="ALB" style="edgeLabel;resizable=0;html=1;align=center;verticalAlign=middle;" connectable="0" vertex="1" parent="QWoIm-UhdKwQbDzPS835-35">
          <mxGeometry relative="1" as="geometry" />
        </mxCell>
        <mxCell id="QWoIm-UhdKwQbDzPS835-37" value="" style="endArrow=classic;html=1;rounded=0;" edge="1" parent="1">
          <mxGeometry relative="1" as="geometry">
            <mxPoint x="368" y="205" as="sourcePoint" />
            <mxPoint x="300" y="205" as="targetPoint" />
          </mxGeometry>
        </mxCell>
        <mxCell id="QWoIm-UhdKwQbDzPS835-38" value="Label" style="edgeLabel;resizable=0;html=1;align=center;verticalAlign=middle;" connectable="0" vertex="1" parent="QWoIm-UhdKwQbDzPS835-37">
          <mxGeometry relative="1" as="geometry" />
        </mxCell>
        <mxCell id="QWoIm-UhdKwQbDzPS835-39" value="ALB" style="edgeLabel;html=1;align=center;verticalAlign=middle;resizable=0;points=[];" vertex="1" connectable="0" parent="QWoIm-UhdKwQbDzPS835-37">
          <mxGeometry x="0.0235" y="-3" relative="1" as="geometry">
            <mxPoint as="offset" />
          </mxGeometry>
        </mxCell>
      </root>
    </mxGraphModel>
  </diagram>
</mxfile>
